<svg width="480" height="248" viewBox="0 0 480 248" fill="none" xmlns="http://www.w3.org/2000/svg">
<rect x="0.233887" y="0.0253906" width="479.234" height="247.025" rx="24" fill="#17020B"/>
<path d="M191.429 72.0254H159.054C146.006 72.0254 135.429 82.6027 135.429 95.6504C135.429 108.698 146.006 119.275 159.054 119.275H185.304C199.318 119.275 210.679 130.636 210.679 144.651C210.679 158.665 199.318 170.026 185.304 170.026H131.525M185.171 144.489L101.713 144.489M78.5346 144.489H64.2339M111.039 170.026H108.126" stroke="#FDE8F1" stroke-width="17.5" stroke-linecap="round"/>
<path d="M235.009 168.854L235.018 168.863L235.027 168.872C240.377 174.222 247.709 176.801 256.792 176.801C261.53 176.801 265.422 176.366 268.389 175.43L268.402 175.426L268.415 175.421C271.305 174.458 273.987 173.268 276.456 171.848C277.423 171.318 278.251 170.636 278.908 169.793C279.707 168.791 280.144 167.626 280.144 166.345C280.144 164.661 279.526 163.182 278.287 162.046C277.111 160.968 275.688 160.404 274.095 160.404C273.139 160.404 272.222 160.597 271.378 161.018C269.477 161.969 267.471 162.752 265.357 163.368C263.328 163.888 260.77 164.165 257.652 164.165C252.127 164.165 248.176 162.804 245.525 160.342C243.199 158.121 241.644 155.286 240.902 151.759H275.277C277.159 151.759 278.835 151.164 280.086 149.825C281.341 148.557 281.971 146.97 281.971 145.173C281.971 140.125 280.915 135.42 278.788 131.086C276.717 126.72 273.642 123.184 269.588 120.505C265.448 117.696 260.434 116.34 254.643 116.34C248.43 116.34 243.173 117.764 239.007 120.752C234.94 123.667 231.941 127.476 230.026 132.145C228.143 136.666 227.207 141.48 227.207 146.57C227.207 155.915 229.735 163.425 235.009 168.854ZM266.226 134.05L266.236 134.064L266.247 134.079C267.436 135.664 268.25 137.716 268.619 140.306H240.77C241.13 137.702 241.917 135.64 243.059 134.05C244.545 131.983 246.319 130.508 248.381 129.571C250.548 128.585 252.631 128.115 254.643 128.115C256.654 128.115 258.737 128.585 260.904 129.571C262.966 130.508 264.74 131.983 266.226 134.05Z" fill="#FDE8F1" stroke="#FDE8F1" stroke-width="3.5"/>
<path d="M304.181 173.244L304.192 173.25C308.446 175.605 312.892 176.801 317.507 176.801C321.528 176.801 325.194 176.041 328.469 174.481C330.518 173.506 332.436 172.284 334.224 170.821C334.441 172.162 335.048 173.357 336.044 174.354L336.067 174.376L336.091 174.399C337.416 175.629 339.023 176.263 340.828 176.263C342.636 176.263 344.233 175.625 345.505 174.354C346.777 173.082 347.415 171.485 347.415 169.677V99.9269C347.415 98.0748 346.795 96.433 345.505 95.1429L344.268 96.3803L345.505 95.1429C344.233 93.8712 342.636 93.2332 340.828 93.2332C339.023 93.2332 337.416 93.8678 336.091 95.0979L336.067 95.12L336.044 95.1429C334.754 96.433 334.135 98.0748 334.135 99.9269V122.246C332.372 120.816 330.483 119.619 328.469 118.659C325.194 117.1 321.528 116.34 317.507 116.34C312.892 116.34 308.446 117.536 304.192 119.89L304.192 119.89L304.181 119.897C299.955 122.279 296.486 125.725 293.766 130.183L293.76 130.192L293.755 130.201C291.053 134.756 289.748 140.241 289.748 146.57C289.748 152.9 291.053 158.384 293.755 162.939L293.76 162.949L293.766 162.958C296.486 167.416 299.955 170.862 304.181 173.244ZM327.626 131.123L327.64 131.131L327.656 131.139C330.141 132.444 332.297 134.056 334.135 135.974V157.167C332.294 159.094 330.132 160.745 327.641 162.117C325.05 163.474 322.15 164.165 318.904 164.165C314.238 164.165 310.465 162.672 307.453 159.728C304.592 156.863 303.028 152.575 303.028 146.57C303.028 140.48 304.599 136.205 307.446 133.42L307.446 133.42C310.459 130.471 314.234 128.975 318.904 128.975C322.142 128.975 325.037 129.699 327.626 131.123Z" fill="#FDE8F1" stroke="#FDE8F1" stroke-width="3.5"/>
<path d="M372.561 173.014L372.571 173.019L372.58 173.025C377.038 175.561 382.182 176.801 387.955 176.801C393.727 176.801 398.84 175.562 403.233 173.019L403.241 173.014C407.672 170.417 411.122 166.852 413.567 162.343L413.567 162.343L413.573 162.333C416.021 157.742 417.218 152.471 417.218 146.57C417.218 140.673 416.022 135.434 413.57 130.91C411.128 126.333 407.677 122.762 403.237 120.232C398.845 117.616 393.729 116.34 387.955 116.34C382.177 116.34 377.029 117.617 372.571 120.229C368.126 122.76 364.673 126.334 362.229 130.915L362.229 130.915L362.224 130.925C359.849 135.446 358.692 140.679 358.692 146.57C358.692 152.463 359.849 157.726 362.219 162.312L362.227 162.328L362.235 162.343C364.68 166.852 368.13 170.417 372.561 173.014ZM401.416 157.025L401.416 157.025L401.409 157.035C399.773 159.653 397.758 161.485 395.374 162.614C392.86 163.805 390.392 164.38 387.955 164.38C385.519 164.38 383.012 163.806 380.421 162.611C378.042 161.482 376.031 159.654 374.398 157.043C372.828 154.465 371.972 150.981 371.972 146.463C371.972 141.937 372.831 138.496 374.393 135.998C376.025 133.386 378.03 131.6 380.394 130.542L380.403 130.538L380.413 130.534C383.007 129.336 385.516 128.76 387.955 128.76C390.392 128.76 392.86 129.335 395.374 130.526L395.391 130.534L395.408 130.542C397.772 131.6 399.777 133.386 401.409 135.998L401.418 136.011L401.426 136.024C403.046 138.517 403.938 141.947 403.938 146.463C403.938 150.975 403.048 154.452 401.416 157.025Z" fill="#FDE8F1" stroke="#FDE8F1" stroke-width="3.5"/>
</svg>
